<svg xmlns="http://www.w3.org/2000/svg" version="1.1" width="256" height="256">
  <defs>
    <linearGradient id="fadeGradient" x1="0%" y1="0%" x2="100%" y2="0%">
      <stop offset="0%" style="stop-color:#000000;stop-opacity:0"/>
      <stop offset="20%" style="stop-color:#000000;stop-opacity:0.8"/>
      <stop offset="80%" style="stop-color:#000000;stop-opacity:0.8"/>
      <stop offset="100%" style="stop-color:#000000;stop-opacity:0"/>
    </linearGradient>
  </defs>

  <rect x="28" y="20" width="200" height="35" rx="5" ry="5" fill="url(#fadeGradient)"/>
  <text x="128" y="45" font-family="Arial" font-size="24" font-weight="bold" fill="white" text-anchor="middle">EndlessOS</text>
  
  <path d="M0 0 C2.4375 1.5625 2.4375 1.5625 4 4 C4.6875 7.375 4.6875 7.375 4 11 C-1.48995636 16.37637106 -7.85093837 20.24420551 -14.375 24.25 C-15.9528125 25.22755249 -15.9528125 25.22755249 -17.5625 26.22485352 C-26.29709496 31.61689857 -35.11097242 36.86706967 -44 42 C-40.52827661 44.84769209 -36.71110231 46.81197153 -32.6875 48.75 C-32.04876953 49.07871094 -31.41003906 49.40742187 -30.75195312 49.74609375 C-26.13088756 51.96532889 -23.11178887 52.34272795 -18 51 C-15.03428014 49.70698578 -15.03428014 49.70698578 -12.0625 48 C9.69330736 36.52765043 36.40373543 26.69094603 61.30859375 31.66015625 C67.97183546 34.00293986 72.7844093 38.18681719 76.31640625 44.265625 C80.55216228 53.88831814 80.9432115 66.91325395 77.3125 76.8125 C74.18418686 83.21182126 68.80845369 88.3344495 62.00390625 90.69140625 C41.70689421 95.86515442 18.42964762 87.62109125 -0.3203125 80.12890625 C-0.95009506 79.87760956 -1.57987762 79.62631287 -2.22874451 79.36740112 C-5.36997593 78.10831965 -8.49887141 76.82730826 -11.62036133 75.51953125 C-12.76529053 75.0503125 -13.91021973 74.58109375 -15.08984375 74.09765625 C-16.10941162 73.66976807 -17.12897949 73.24187988 -18.17944336 72.80102539 C-22.76583084 71.49851199 -25.9586466 72.7572014 -30.01953125 74.9765625 C-30.78289795 75.39268799 -31.54626465 75.80881348 -32.33276367 76.23754883 C-33.15107666 76.69540771 -33.96938965 77.1532666 -34.8125 77.625 C-35.67399658 78.10283936 -36.53549316 78.58067871 -37.4230957 79.07299805 C-51.00299081 86.7042048 -64.28181376 94.99528064 -77.11157227 103.83032227 C-79.81470061 105.50461934 -81.8178445 106.14464343 -85 106 C-87.875 104.5 -87.875 104.5 -90 102 C-90.625 98.5625 -90.625 98.5625 -90 95 C-86.42369493 90.85443289 -82.33054506 88.01829422 -77.75 85.125 C-77.03706787 84.66955811 -76.32413574 84.21411621 -75.58959961 83.74487305 C-68.63890161 79.33972695 -61.60531268 75.06824717 -54.5625 70.8125 C-53.45422852 70.14041504 -52.34595703 69.46833008 -51.20410156 68.77587891 C-49.65094238 67.84461182 -49.65094238 67.84461182 -48.06640625 66.89453125 C-47.13771729 66.33612549 -46.20902832 65.77771973 -45.25219727 65.20239258 C-43 64 -43 64 -41 64 C-41 63.34 -41 62.68 -41 62 C-41.83402344 61.74605469 -42.66804688 61.49210937 -43.52734375 61.23046875 C-48.05472002 59.62628031 -52.25638723 57.50119422 -56.52148438 55.30273438 C-59.20870701 53.98782686 -61.40359972 52.99135652 -64.42578125 53.03515625 C-68.28690939 54.48234692 -71.93581897 56.28924427 -75.625 58.125 C-97.02548699 68.48662164 -124.62299241 80.39801603 -148.52734375 72.96875 C-155.53561656 70.22301279 -159.84473737 65.83049363 -163 59 C-166.22435822 49.71158563 -166.76314012 37.69763751 -163.5 28.3125 C-160.08071855 21.32946041 -154.43384613 17.13790039 -147.23095703 14.59545898 C-128.49144156 9.59374327 -107.57081477 17.20247098 -90.125 23.4375 C-89.05499756 23.81600098 -87.98499512 24.19450195 -86.88256836 24.58447266 C-82.34473901 26.23273461 -78.01354986 27.8660604 -73.85546875 30.3359375 C-70.21499771 32.43735957 -67.27946359 33.68559043 -63 34 C-56.0660038 31.97972456 -50.01159288 27.85984654 -44.01025391 23.95410156 C-40.90797152 21.94025986 -37.76584717 20.00714892 -34.60546875 18.0859375 C-25.92166206 12.77568651 -17.36414918 7.39261834 -9.17041016 1.34570312 C-5.93977616 -0.65736263 -3.67346824 -0.80816301 0 0 Z M-147 31 C-150.15852018 35.06835152 -150.43238657 38.35986417 -150.4375 43.4375 C-150.45683594 44.71496094 -150.47617188 45.99242188 -150.49609375 47.30859375 C-149.91239965 51.65182934 -148.85670294 53.69649161 -146 57 C-138.55772977 61.79229406 -129.98593003 60.88552909 -121.63671875 59.19140625 C-108.2496859 56.09440611 -91.85177235 51.65857529 -81 43 C-113.50771824 28.29260995 -113.50771824 28.29260995 -147 31 Z M2.59277344 57.91845703 C0.07120576 58.97029741 -2.46081323 59.99154084 -5 61 C6.21173117 72.21173117 34.32449092 77.03934158 49.9375 77.5625 C55.19680504 77.34414214 58.25358166 76.74641834 62 73 C64.42106054 69.35994395 64.33214564 65.91900666 64.375 61.625 C64.40335937 60.33851563 64.43171875 59.05203125 64.4609375 57.7265625 C63.9281523 53.41912962 62.73362945 51.32960992 60 48 C43.35927789 37.81180279 18.23937607 51.35439518 2.59277344 57.91845703 Z " fill="#FF6A00" transform="translate(170,74)"/>
  
  <rect x="1" y="195" width="255" height="30" rx="5" ry="5" fill="url(#fadeGradient)"/>
  <text x="128" y="215" font-family="Arial" font-size="14" fill="white" text-anchor="middle">Ananya Addisu | BDU1600957</text>
</svg> 
